<mxfile host="app.diagrams.net" modified="2022-08-23T11:10:52.713Z" agent="5.0 (Macintosh)" etag="tK-DjA-WzAVT7BOPAjNf" version="20.2.3" type="github">
  <diagram id="rmzOahfYlKzAROvoxuqg" name="Page-1">
    <mxGraphModel dx="1352" dy="767" grid="1" gridSize="10" guides="1" tooltips="1" connect="1" arrows="1" fold="1" page="1" pageScale="1" pageWidth="850" pageHeight="1100" math="0" shadow="0">
      <root>
        <mxCell id="0" />
        <mxCell id="1" parent="0" />
        <mxCell id="IYTiLEhlw6lP6kUkybA1-132" value="" style="rounded=1;whiteSpace=wrap;html=1;sketch=0;fontFamily=Garamond;fontSize=13;fillColor=#E6E6E6;strokeColor=none;" parent="1" vertex="1">
          <mxGeometry x="730" y="110" width="240" height="60" as="geometry" />
        </mxCell>
        <mxCell id="IYTiLEhlw6lP6kUkybA1-131" value="soon will be published" style="text;html=1;align=center;verticalAlign=middle;resizable=0;points=[];autosize=1;strokeColor=none;fillColor=none;fontSize=13;fontFamily=Garamond;" parent="1" vertex="1">
          <mxGeometry x="830" y="140" width="140" height="30" as="geometry" />
        </mxCell>
        <mxCell id="IYTiLEhlw6lP6kUkybA1-4" value="" style="edgeStyle=orthogonalEdgeStyle;rounded=0;orthogonalLoop=1;jettySize=auto;html=1;" parent="1" source="IYTiLEhlw6lP6kUkybA1-2" target="IYTiLEhlw6lP6kUkybA1-3" edge="1">
          <mxGeometry relative="1" as="geometry" />
        </mxCell>
        <mxCell id="IYTiLEhlw6lP6kUkybA1-2" value="Start" style="ellipse;whiteSpace=wrap;html=1;fillColor=#1ba1e2;fontColor=#ffffff;strokeColor=#006EAF;" parent="1" vertex="1">
          <mxGeometry x="410" y="80" width="50" height="40" as="geometry" />
        </mxCell>
        <mxCell id="IYTiLEhlw6lP6kUkybA1-72" value="" style="edgeStyle=orthogonalEdgeStyle;rounded=0;orthogonalLoop=1;jettySize=auto;html=1;fontFamily=Garamond;fontSize=13;" parent="1" source="IYTiLEhlw6lP6kUkybA1-3" target="IYTiLEhlw6lP6kUkybA1-71" edge="1">
          <mxGeometry relative="1" as="geometry" />
        </mxCell>
        <mxCell id="IYTiLEhlw6lP6kUkybA1-75" value="" style="edgeStyle=orthogonalEdgeStyle;rounded=0;orthogonalLoop=1;jettySize=auto;html=1;fontFamily=Garamond;fontSize=13;" parent="1" source="IYTiLEhlw6lP6kUkybA1-3" target="IYTiLEhlw6lP6kUkybA1-74" edge="1">
          <mxGeometry relative="1" as="geometry" />
        </mxCell>
        <mxCell id="IYTiLEhlw6lP6kUkybA1-78" value="Mobile" style="edgeLabel;html=1;align=center;verticalAlign=middle;resizable=0;points=[];fontSize=13;fontFamily=Garamond;" parent="IYTiLEhlw6lP6kUkybA1-75" vertex="1" connectable="0">
          <mxGeometry x="-0.3456" y="1" relative="1" as="geometry">
            <mxPoint as="offset" />
          </mxGeometry>
        </mxCell>
        <mxCell id="IYTiLEhlw6lP6kUkybA1-3" value="Platform?" style="rhombus;whiteSpace=wrap;html=1;fillColor=#1ba1e2;strokeColor=none;fontColor=#ffffff;rounded=1;perimeterSpacing=0;spacing=22;" parent="1" vertex="1">
          <mxGeometry x="378.13" y="170" width="113.75" height="70" as="geometry" />
        </mxCell>
        <mxCell id="IYTiLEhlw6lP6kUkybA1-73" value="" style="edgeStyle=orthogonalEdgeStyle;rounded=0;orthogonalLoop=1;jettySize=auto;html=1;fontFamily=Garamond;fontSize=13;endArrow=none;endFill=0;" parent="1" source="IYTiLEhlw6lP6kUkybA1-71" target="IYTiLEhlw6lP6kUkybA1-3" edge="1">
          <mxGeometry relative="1" as="geometry" />
        </mxCell>
        <mxCell id="IYTiLEhlw6lP6kUkybA1-77" value="Web" style="edgeLabel;html=1;align=center;verticalAlign=middle;resizable=0;points=[];fontSize=13;fontFamily=Garamond;" parent="IYTiLEhlw6lP6kUkybA1-73" vertex="1" connectable="0">
          <mxGeometry x="0.2411" relative="1" as="geometry">
            <mxPoint as="offset" />
          </mxGeometry>
        </mxCell>
        <mxCell id="IYTiLEhlw6lP6kUkybA1-97" style="edgeStyle=elbowEdgeStyle;rounded=1;orthogonalLoop=1;jettySize=auto;html=1;fontFamily=Garamond;fontSize=13;endArrow=classic;endFill=1;entryX=0;entryY=0.5;entryDx=0;entryDy=0;jumpStyle=none;" parent="1" source="IYTiLEhlw6lP6kUkybA1-71" target="IYTiLEhlw6lP6kUkybA1-93" edge="1">
          <mxGeometry relative="1" as="geometry">
            <mxPoint x="870" y="460" as="targetPoint" />
            <Array as="points">
              <mxPoint x="690" y="300" />
              <mxPoint x="700" y="310" />
              <mxPoint x="800" y="300" />
              <mxPoint x="880" y="360" />
              <mxPoint x="800" y="390" />
              <mxPoint x="800" y="320" />
              <mxPoint x="830" y="290" />
            </Array>
          </mxGeometry>
        </mxCell>
        <mxCell id="IYTiLEhlw6lP6kUkybA1-98" value="Mobile browser" style="edgeLabel;html=1;align=center;verticalAlign=middle;resizable=0;points=[];fontSize=13;fontFamily=Garamond;" parent="IYTiLEhlw6lP6kUkybA1-97" vertex="1" connectable="0">
          <mxGeometry x="-0.8534" y="-2" relative="1" as="geometry">
            <mxPoint x="2" y="54" as="offset" />
          </mxGeometry>
        </mxCell>
        <mxCell id="IYTiLEhlw6lP6kUkybA1-99" style="edgeStyle=orthogonalEdgeStyle;rounded=1;jumpStyle=none;orthogonalLoop=1;jettySize=auto;html=1;entryX=0;entryY=0.5;entryDx=0;entryDy=0;fontFamily=Garamond;fontSize=13;endArrow=classic;endFill=1;exitX=0.5;exitY=1;exitDx=0;exitDy=0;dashed=1;jumpSize=6;strokeWidth=2;" parent="1" source="IYTiLEhlw6lP6kUkybA1-71" target="IYTiLEhlw6lP6kUkybA1-93" edge="1">
          <mxGeometry relative="1" as="geometry">
            <Array as="points">
              <mxPoint x="629" y="355" />
            </Array>
          </mxGeometry>
        </mxCell>
        <mxCell id="IYTiLEhlw6lP6kUkybA1-100" value="Desktop browser" style="edgeLabel;html=1;align=center;verticalAlign=middle;resizable=0;points=[];fontSize=13;fontFamily=Garamond;" parent="IYTiLEhlw6lP6kUkybA1-99" vertex="1" connectable="0">
          <mxGeometry x="-0.7989" relative="1" as="geometry">
            <mxPoint y="47" as="offset" />
          </mxGeometry>
        </mxCell>
        <mxCell id="IYTiLEhlw6lP6kUkybA1-71" value="running on?" style="rhombus;whiteSpace=wrap;html=1;fillColor=#1ba1e2;strokeColor=none;fontColor=#ffffff;rounded=1;perimeterSpacing=0;spacing=22;" parent="1" vertex="1">
          <mxGeometry x="571.88" y="170" width="113.75" height="70" as="geometry" />
        </mxCell>
        <mxCell id="IYTiLEhlw6lP6kUkybA1-102" value="" style="edgeStyle=orthogonalEdgeStyle;rounded=1;jumpStyle=none;jumpSize=6;orthogonalLoop=1;jettySize=auto;html=1;fontFamily=Garamond;fontSize=13;endArrow=classic;endFill=1;strokeWidth=1;" parent="1" source="IYTiLEhlw6lP6kUkybA1-74" target="IYTiLEhlw6lP6kUkybA1-101" edge="1">
          <mxGeometry relative="1" as="geometry" />
        </mxCell>
        <mxCell id="IYTiLEhlw6lP6kUkybA1-103" value="Native" style="edgeLabel;html=1;align=center;verticalAlign=middle;resizable=0;points=[];fontSize=13;fontFamily=Garamond;" parent="IYTiLEhlw6lP6kUkybA1-102" vertex="1" connectable="0">
          <mxGeometry x="-0.206" y="3" relative="1" as="geometry">
            <mxPoint as="offset" />
          </mxGeometry>
        </mxCell>
        <mxCell id="IYTiLEhlw6lP6kUkybA1-104" style="edgeStyle=orthogonalEdgeStyle;rounded=1;jumpStyle=none;jumpSize=6;orthogonalLoop=1;jettySize=auto;html=1;fontFamily=Garamond;fontSize=13;endArrow=classic;endFill=1;strokeWidth=1;entryX=0;entryY=0.5;entryDx=0;entryDy=0;" parent="1" source="IYTiLEhlw6lP6kUkybA1-74" target="IYTiLEhlw6lP6kUkybA1-62" edge="1">
          <mxGeometry relative="1" as="geometry">
            <mxPoint x="710" y="380" as="targetPoint" />
            <Array as="points">
              <mxPoint x="730" y="405" />
              <mxPoint x="730" y="405" />
            </Array>
          </mxGeometry>
        </mxCell>
        <mxCell id="IYTiLEhlw6lP6kUkybA1-108" value="Unity" style="edgeLabel;html=1;align=center;verticalAlign=middle;resizable=0;points=[];fontSize=13;fontFamily=Garamond;" parent="IYTiLEhlw6lP6kUkybA1-104" vertex="1" connectable="0">
          <mxGeometry x="0.4088" relative="1" as="geometry">
            <mxPoint x="14" as="offset" />
          </mxGeometry>
        </mxCell>
        <mxCell id="IYTiLEhlw6lP6kUkybA1-106" style="edgeStyle=orthogonalEdgeStyle;rounded=1;jumpStyle=none;jumpSize=6;orthogonalLoop=1;jettySize=auto;html=1;entryX=0;entryY=0.5;entryDx=0;entryDy=0;fontFamily=Garamond;fontSize=13;endArrow=classic;endFill=1;strokeWidth=1;" parent="1" source="IYTiLEhlw6lP6kUkybA1-74" target="IYTiLEhlw6lP6kUkybA1-63" edge="1">
          <mxGeometry relative="1" as="geometry">
            <Array as="points">
              <mxPoint x="630" y="405" />
              <mxPoint x="630" y="455" />
            </Array>
          </mxGeometry>
        </mxCell>
        <mxCell id="IYTiLEhlw6lP6kUkybA1-109" value="Flutter" style="edgeLabel;html=1;align=center;verticalAlign=middle;resizable=0;points=[];fontSize=13;fontFamily=Garamond;" parent="IYTiLEhlw6lP6kUkybA1-106" vertex="1" connectable="0">
          <mxGeometry x="0.4598" y="-3" relative="1" as="geometry">
            <mxPoint x="19" y="-3" as="offset" />
          </mxGeometry>
        </mxCell>
        <mxCell id="IYTiLEhlw6lP6kUkybA1-107" style="edgeStyle=orthogonalEdgeStyle;rounded=1;jumpStyle=none;jumpSize=6;orthogonalLoop=1;jettySize=auto;html=1;entryX=0;entryY=0.5;entryDx=0;entryDy=0;fontFamily=Garamond;fontSize=13;endArrow=classic;endFill=1;strokeWidth=1;" parent="1" source="IYTiLEhlw6lP6kUkybA1-74" target="IYTiLEhlw6lP6kUkybA1-65" edge="1">
          <mxGeometry relative="1" as="geometry">
            <Array as="points">
              <mxPoint x="630" y="405" />
              <mxPoint x="630" y="495" />
            </Array>
          </mxGeometry>
        </mxCell>
        <mxCell id="IYTiLEhlw6lP6kUkybA1-110" value="React Native" style="edgeLabel;html=1;align=center;verticalAlign=middle;resizable=0;points=[];fontSize=13;fontFamily=Garamond;" parent="IYTiLEhlw6lP6kUkybA1-107" vertex="1" connectable="0">
          <mxGeometry x="0.4981" y="4" relative="1" as="geometry">
            <mxPoint x="26" y="4" as="offset" />
          </mxGeometry>
        </mxCell>
        <mxCell id="IYTiLEhlw6lP6kUkybA1-74" value="using native or frameworks?" style="rhombus;whiteSpace=wrap;html=1;fillColor=#1ba1e2;strokeColor=none;fontColor=#ffffff;rounded=1;perimeterSpacing=0;spacing=22;" parent="1" vertex="1">
          <mxGeometry x="374.07" y="370" width="121.88" height="70" as="geometry" />
        </mxCell>
        <mxCell id="IYTiLEhlw6lP6kUkybA1-80" value="" style="group" parent="1" vertex="1" connectable="0">
          <mxGeometry x="740" y="610" width="122" height="32" as="geometry" />
        </mxCell>
        <mxCell id="IYTiLEhlw6lP6kUkybA1-67" value="" style="dashed=0;outlineConnect=0;html=1;align=center;labelPosition=center;verticalLabelPosition=bottom;verticalAlign=top;shape=mxgraph.webicons.android;" parent="IYTiLEhlw6lP6kUkybA1-80" vertex="1">
          <mxGeometry width="32" height="32" as="geometry" />
        </mxCell>
        <mxCell id="IYTiLEhlw6lP6kUkybA1-79" value="&lt;a href=&quot;https://github.com/adtrace/adtrace_sdk_android&quot;&gt;android SDK&lt;br&gt;&lt;/a&gt;" style="text;html=1;align=center;verticalAlign=middle;resizable=0;points=[];autosize=1;strokeColor=none;fillColor=none;fontSize=13;fontFamily=Garamond;" parent="IYTiLEhlw6lP6kUkybA1-80" vertex="1">
          <mxGeometry x="32" y="2" width="90" height="30" as="geometry" />
        </mxCell>
        <mxCell id="IYTiLEhlw6lP6kUkybA1-81" value="" style="group" parent="1" vertex="1" connectable="0">
          <mxGeometry x="740" y="660" width="157" height="32" as="geometry" />
        </mxCell>
        <mxCell id="IYTiLEhlw6lP6kUkybA1-82" value="" style="dashed=0;outlineConnect=0;html=1;align=center;labelPosition=center;verticalLabelPosition=bottom;verticalAlign=top;shape=mxgraph.webicons.android;fillColor=#fad7ac;strokeColor=#b46504;" parent="IYTiLEhlw6lP6kUkybA1-81" vertex="1">
          <mxGeometry width="32" height="32" as="geometry" />
        </mxCell>
        <mxCell id="IYTiLEhlw6lP6kUkybA1-83" value="&lt;a href=&quot;https://github.com/adtrace/adtrace_sdk_android&quot;&gt;android SDK + Webbridge&lt;br&gt;&lt;/a&gt;" style="text;html=1;align=center;verticalAlign=middle;resizable=0;points=[];autosize=1;strokeColor=none;fillColor=none;fontSize=13;fontFamily=Garamond;" parent="IYTiLEhlw6lP6kUkybA1-81" vertex="1">
          <mxGeometry x="32" y="2" width="160" height="30" as="geometry" />
        </mxCell>
        <mxCell id="IYTiLEhlw6lP6kUkybA1-86" value="" style="group" parent="1" vertex="1" connectable="0">
          <mxGeometry x="745" y="530" width="100" height="30" as="geometry" />
        </mxCell>
        <mxCell id="IYTiLEhlw6lP6kUkybA1-66" value="" style="dashed=0;outlineConnect=0;html=1;align=center;labelPosition=center;verticalLabelPosition=bottom;verticalAlign=top;shape=mxgraph.webicons.ios;fillColor=#695D5D;gradientColor=#100E0E" parent="IYTiLEhlw6lP6kUkybA1-86" vertex="1">
          <mxGeometry width="30" height="30" as="geometry" />
        </mxCell>
        <mxCell id="IYTiLEhlw6lP6kUkybA1-85" value="&lt;a href=&quot;https://github.com/adtrace/adtrace_sdk_iOS&quot;&gt;iOS SDK&lt;/a&gt;" style="text;html=1;align=center;verticalAlign=middle;resizable=0;points=[];autosize=1;strokeColor=none;fillColor=none;fontSize=13;fontFamily=Garamond;" parent="IYTiLEhlw6lP6kUkybA1-86" vertex="1">
          <mxGeometry x="30" width="70" height="30" as="geometry" />
        </mxCell>
        <mxCell id="IYTiLEhlw6lP6kUkybA1-90" value="" style="group" parent="1" vertex="1" connectable="0">
          <mxGeometry x="745" y="390" width="107.83000000000004" height="30" as="geometry" />
        </mxCell>
        <mxCell id="IYTiLEhlw6lP6kUkybA1-62" value="" style="shape=image;verticalLabelPosition=bottom;labelBackgroundColor=default;verticalAlign=top;aspect=fixed;imageAspect=0;image=https://upload.wikimedia.org/wikipedia/commons/thumb/1/19/Unity_Technologies_logo.svg/2560px-Unity_Technologies_logo.svg.png;sketch=0;clipPath=inset(0% 61.33% 2.75% 0%);" parent="IYTiLEhlw6lP6kUkybA1-90" vertex="1">
          <mxGeometry width="32.83" height="30" as="geometry" />
        </mxCell>
        <mxCell id="IYTiLEhlw6lP6kUkybA1-87" value="&lt;a href=&quot;https://github.com/adtrace/adtrace_sdk_unity&quot;&gt;Unity SDK&lt;/a&gt;" style="text;html=1;align=center;verticalAlign=middle;resizable=0;points=[];autosize=1;strokeColor=none;fillColor=none;fontSize=13;fontFamily=Garamond;" parent="IYTiLEhlw6lP6kUkybA1-90" vertex="1">
          <mxGeometry x="27.83000000000004" width="80" height="30" as="geometry" />
        </mxCell>
        <mxCell id="IYTiLEhlw6lP6kUkybA1-91" value="" style="group" parent="1" vertex="1" connectable="0">
          <mxGeometry x="745" y="480" width="145.63" height="30" as="geometry" />
        </mxCell>
        <mxCell id="IYTiLEhlw6lP6kUkybA1-65" value="" style="shape=image;verticalLabelPosition=bottom;labelBackgroundColor=default;verticalAlign=top;aspect=fixed;imageAspect=0;image=https://www.pngitem.com/pimgs/m/514-5142665_react-native-transparent-react-native-logo-png-png.png;clipPath=inset(2.17% 67% 0% 2.67%);" parent="IYTiLEhlw6lP6kUkybA1-91" vertex="1">
          <mxGeometry width="30.33" height="30" as="geometry" />
        </mxCell>
        <mxCell id="IYTiLEhlw6lP6kUkybA1-89" value="&lt;a href=&quot;https://github.com/adtrace/adtrace_sdk_react_native&quot;&gt;ReactNative SDK&lt;/a&gt;" style="text;html=1;align=center;verticalAlign=middle;resizable=0;points=[];autosize=1;strokeColor=none;fillColor=none;fontSize=13;fontFamily=Garamond;" parent="IYTiLEhlw6lP6kUkybA1-91" vertex="1">
          <mxGeometry x="25.629999999999995" width="120" height="30" as="geometry" />
        </mxCell>
        <mxCell id="IYTiLEhlw6lP6kUkybA1-92" value="" style="group" parent="1" vertex="1" connectable="0">
          <mxGeometry x="745" y="440" width="115.63" height="30" as="geometry" />
        </mxCell>
        <mxCell id="IYTiLEhlw6lP6kUkybA1-63" value="" style="shape=image;verticalLabelPosition=bottom;labelBackgroundColor=default;verticalAlign=top;aspect=fixed;imageAspect=0;image=https://upload.wikimedia.org/wikipedia/commons/thumb/4/44/Google-flutter-logo.svg/2560px-Google-flutter-logo.svg.png;clipPath=inset(0% 71% 0% 0%);" parent="IYTiLEhlw6lP6kUkybA1-92" vertex="1">
          <mxGeometry width="30.35" height="30" as="geometry" />
        </mxCell>
        <mxCell id="IYTiLEhlw6lP6kUkybA1-88" value="&lt;a href=&quot;https://github.com/adtrace/adtrace_sdk_flutter&quot;&gt;Flutter SDK&lt;/a&gt;" style="text;html=1;align=center;verticalAlign=middle;resizable=0;points=[];autosize=1;strokeColor=none;fillColor=none;fontSize=13;fontFamily=Garamond;" parent="IYTiLEhlw6lP6kUkybA1-92" vertex="1">
          <mxGeometry x="25.629999999999995" width="90" height="30" as="geometry" />
        </mxCell>
        <mxCell id="IYTiLEhlw6lP6kUkybA1-95" value="" style="group" parent="1" vertex="1" connectable="0">
          <mxGeometry x="745" y="340" width="107.83000000000004" height="30" as="geometry" />
        </mxCell>
        <mxCell id="IYTiLEhlw6lP6kUkybA1-93" value="" style="shape=image;verticalLabelPosition=bottom;labelBackgroundColor=default;verticalAlign=top;aspect=fixed;imageAspect=0;image=https://www.kindpng.com/picc/m/379-3793754_world-wide-web-icon-website-logo-vector-free.png;" parent="IYTiLEhlw6lP6kUkybA1-95" vertex="1">
          <mxGeometry y="2.5" width="29.88" height="25" as="geometry" />
        </mxCell>
        <mxCell id="IYTiLEhlw6lP6kUkybA1-94" value="&lt;a href=&quot;https://github.com/adtrace/adtrace_sdk_web&quot;&gt;Web SDK&lt;/a&gt;" style="text;html=1;align=center;verticalAlign=middle;resizable=0;points=[];autosize=1;strokeColor=none;fillColor=none;fontSize=13;fontFamily=Garamond;" parent="IYTiLEhlw6lP6kUkybA1-95" vertex="1">
          <mxGeometry x="27.83000000000004" width="80" height="30" as="geometry" />
        </mxCell>
        <mxCell id="IYTiLEhlw6lP6kUkybA1-112" style="edgeStyle=orthogonalEdgeStyle;rounded=1;jumpStyle=none;jumpSize=6;orthogonalLoop=1;jettySize=auto;html=1;fontFamily=Garamond;fontSize=13;endArrow=classic;endFill=1;strokeWidth=1;exitX=0.951;exitY=0.543;exitDx=0;exitDy=0;exitPerimeter=0;" parent="1" source="IYTiLEhlw6lP6kUkybA1-101" target="IYTiLEhlw6lP6kUkybA1-66" edge="1">
          <mxGeometry relative="1" as="geometry">
            <mxPoint x="940" y="500" as="targetPoint" />
            <Array as="points">
              <mxPoint x="490" y="545" />
            </Array>
          </mxGeometry>
        </mxCell>
        <mxCell id="IYTiLEhlw6lP6kUkybA1-114" value="iOS" style="edgeLabel;html=1;align=center;verticalAlign=middle;resizable=0;points=[];fontSize=13;fontFamily=Garamond;" parent="IYTiLEhlw6lP6kUkybA1-112" vertex="1" connectable="0">
          <mxGeometry x="-0.8966" y="2" relative="1" as="geometry">
            <mxPoint x="18" y="2" as="offset" />
          </mxGeometry>
        </mxCell>
        <mxCell id="IYTiLEhlw6lP6kUkybA1-116" value="" style="edgeStyle=orthogonalEdgeStyle;rounded=1;jumpStyle=none;jumpSize=6;orthogonalLoop=1;jettySize=auto;html=1;fontFamily=Garamond;fontSize=13;endArrow=classic;endFill=1;strokeWidth=1;" parent="1" source="IYTiLEhlw6lP6kUkybA1-101" target="IYTiLEhlw6lP6kUkybA1-115" edge="1">
          <mxGeometry relative="1" as="geometry" />
        </mxCell>
        <mxCell id="IYTiLEhlw6lP6kUkybA1-117" value="android" style="edgeLabel;html=1;align=center;verticalAlign=middle;resizable=0;points=[];fontSize=13;fontFamily=Garamond;" parent="IYTiLEhlw6lP6kUkybA1-116" vertex="1" connectable="0">
          <mxGeometry x="-0.1417" y="-1" relative="1" as="geometry">
            <mxPoint as="offset" />
          </mxGeometry>
        </mxCell>
        <mxCell id="IYTiLEhlw6lP6kUkybA1-101" value="&lt;b&gt;android&lt;/b&gt; or &lt;b&gt;iOS&lt;/b&gt;?" style="rhombus;whiteSpace=wrap;html=1;fillColor=#1ba1e2;strokeColor=none;fontColor=#ffffff;rounded=1;perimeterSpacing=0;spacing=22;" parent="1" vertex="1">
          <mxGeometry x="374.06" y="510" width="121.88" height="70" as="geometry" />
        </mxCell>
        <mxCell id="IYTiLEhlw6lP6kUkybA1-119" value="" style="edgeStyle=orthogonalEdgeStyle;rounded=1;jumpStyle=none;jumpSize=6;orthogonalLoop=1;jettySize=auto;html=1;fontFamily=Garamond;fontSize=13;endArrow=classic;endFill=1;strokeWidth=1;" parent="1" source="IYTiLEhlw6lP6kUkybA1-115" target="IYTiLEhlw6lP6kUkybA1-118" edge="1">
          <mxGeometry relative="1" as="geometry" />
        </mxCell>
        <mxCell id="IYTiLEhlw6lP6kUkybA1-122" value="Yes" style="edgeLabel;html=1;align=center;verticalAlign=middle;resizable=0;points=[];fontSize=13;fontFamily=Garamond;" parent="IYTiLEhlw6lP6kUkybA1-119" vertex="1" connectable="0">
          <mxGeometry x="-0.2487" y="-1" relative="1" as="geometry">
            <mxPoint as="offset" />
          </mxGeometry>
        </mxCell>
        <mxCell id="IYTiLEhlw6lP6kUkybA1-120" style="edgeStyle=orthogonalEdgeStyle;rounded=1;jumpStyle=none;jumpSize=6;orthogonalLoop=1;jettySize=auto;html=1;fontFamily=Garamond;fontSize=13;endArrow=classic;endFill=1;strokeWidth=1;" parent="1" source="IYTiLEhlw6lP6kUkybA1-115" target="IYTiLEhlw6lP6kUkybA1-67" edge="1">
          <mxGeometry relative="1" as="geometry">
            <Array as="points">
              <mxPoint x="670" y="665" />
              <mxPoint x="670" y="626" />
            </Array>
          </mxGeometry>
        </mxCell>
        <mxCell id="IYTiLEhlw6lP6kUkybA1-121" value="No - Only Native" style="edgeLabel;html=1;align=center;verticalAlign=middle;resizable=0;points=[];fontSize=13;fontFamily=Garamond;" parent="IYTiLEhlw6lP6kUkybA1-120" vertex="1" connectable="0">
          <mxGeometry x="-0.4775" y="-3" relative="1" as="geometry">
            <mxPoint x="2" y="-3" as="offset" />
          </mxGeometry>
        </mxCell>
        <mxCell id="IYTiLEhlw6lP6kUkybA1-115" value="contains a &lt;b&gt;webview&lt;/b&gt;?" style="rhombus;whiteSpace=wrap;html=1;fillColor=#1ba1e2;strokeColor=none;fontColor=#ffffff;rounded=1;perimeterSpacing=0;spacing=22;" parent="1" vertex="1">
          <mxGeometry x="374.06" y="630" width="121.88" height="70" as="geometry" />
        </mxCell>
        <mxCell id="IYTiLEhlw6lP6kUkybA1-123" style="edgeStyle=orthogonalEdgeStyle;rounded=1;jumpStyle=none;jumpSize=6;orthogonalLoop=1;jettySize=auto;html=1;fontFamily=Garamond;fontSize=13;endArrow=classic;endFill=1;strokeWidth=1;" parent="1" source="IYTiLEhlw6lP6kUkybA1-118" target="IYTiLEhlw6lP6kUkybA1-82" edge="1">
          <mxGeometry relative="1" as="geometry">
            <mxPoint x="700" y="670" as="targetPoint" />
            <Array as="points">
              <mxPoint x="680" y="785" />
              <mxPoint x="680" y="676" />
            </Array>
          </mxGeometry>
        </mxCell>
        <mxCell id="IYTiLEhlw6lP6kUkybA1-124" value="Yes " style="edgeLabel;html=1;align=center;verticalAlign=middle;resizable=0;points=[];fontSize=13;fontFamily=Garamond;" parent="IYTiLEhlw6lP6kUkybA1-123" vertex="1" connectable="0">
          <mxGeometry x="-0.7682" y="-3" relative="1" as="geometry">
            <mxPoint y="-3" as="offset" />
          </mxGeometry>
        </mxCell>
        <mxCell id="IYTiLEhlw6lP6kUkybA1-126" value="" style="edgeStyle=orthogonalEdgeStyle;rounded=1;jumpStyle=none;jumpSize=6;orthogonalLoop=1;jettySize=auto;html=1;fontFamily=Garamond;fontSize=13;endArrow=classic;endFill=1;strokeWidth=1;" parent="1" source="IYTiLEhlw6lP6kUkybA1-118" target="IYTiLEhlw6lP6kUkybA1-94" edge="1">
          <mxGeometry relative="1" as="geometry">
            <mxPoint x="920" y="360" as="targetPoint" />
            <Array as="points">
              <mxPoint x="435" y="840" />
              <mxPoint x="970" y="840" />
              <mxPoint x="970" y="355" />
            </Array>
          </mxGeometry>
        </mxCell>
        <mxCell id="IYTiLEhlw6lP6kUkybA1-127" value="No web bridge exists" style="edgeLabel;html=1;align=center;verticalAlign=middle;resizable=0;points=[];fontSize=13;fontFamily=Garamond;" parent="IYTiLEhlw6lP6kUkybA1-126" vertex="1" connectable="0">
          <mxGeometry x="-0.2043" y="1" relative="1" as="geometry">
            <mxPoint x="-303" as="offset" />
          </mxGeometry>
        </mxCell>
        <mxCell id="IYTiLEhlw6lP6kUkybA1-118" value="app uses &lt;b&gt;web bridge&lt;/b&gt;?" style="rhombus;whiteSpace=wrap;html=1;fillColor=#1ba1e2;strokeColor=none;fontColor=#ffffff;rounded=1;perimeterSpacing=0;spacing=22;" parent="1" vertex="1">
          <mxGeometry x="374.06" y="750" width="121.88" height="70" as="geometry" />
        </mxCell>
        <mxCell id="IYTiLEhlw6lP6kUkybA1-128" value="" style="endArrow=classic;html=1;rounded=1;fontFamily=Garamond;fontSize=13;strokeWidth=1;jumpStyle=none;jumpSize=6;" parent="1" edge="1">
          <mxGeometry width="50" height="50" relative="1" as="geometry">
            <mxPoint x="745.63" y="124.57" as="sourcePoint" />
            <mxPoint x="810.63" y="124.57" as="targetPoint" />
          </mxGeometry>
        </mxCell>
        <mxCell id="IYTiLEhlw6lP6kUkybA1-129" value="" style="endArrow=classic;html=1;rounded=1;fontFamily=Garamond;fontSize=13;strokeWidth=1;jumpStyle=none;jumpSize=6;dashed=1;" parent="1" edge="1">
          <mxGeometry width="50" height="50" relative="1" as="geometry">
            <mxPoint x="745.6300000000001" y="155" as="sourcePoint" />
            <mxPoint x="810.6300000000001" y="155" as="targetPoint" />
          </mxGeometry>
        </mxCell>
        <mxCell id="IYTiLEhlw6lP6kUkybA1-130" value="stable" style="text;html=1;align=center;verticalAlign=middle;resizable=0;points=[];autosize=1;strokeColor=none;fillColor=none;fontSize=13;fontFamily=Garamond;" parent="1" vertex="1">
          <mxGeometry x="830" y="110" width="50" height="30" as="geometry" />
        </mxCell>
        <mxCell id="uBe8A7_YN0csv0diV8aF-10" value="" style="edgeStyle=orthogonalEdgeStyle;rounded=0;orthogonalLoop=1;jettySize=auto;html=1;" edge="1" parent="1" source="uBe8A7_YN0csv0diV8aF-1" target="uBe8A7_YN0csv0diV8aF-9">
          <mxGeometry relative="1" as="geometry" />
        </mxCell>
        <mxCell id="uBe8A7_YN0csv0diV8aF-16" style="edgeStyle=orthogonalEdgeStyle;rounded=0;orthogonalLoop=1;jettySize=auto;html=1;fontColor=#3333FF;" edge="1" parent="1" source="uBe8A7_YN0csv0diV8aF-1" target="uBe8A7_YN0csv0diV8aF-14">
          <mxGeometry relative="1" as="geometry" />
        </mxCell>
        <mxCell id="uBe8A7_YN0csv0diV8aF-17" value="information from Click" style="edgeLabel;html=1;align=center;verticalAlign=middle;resizable=0;points=[];fontColor=#000000;" vertex="1" connectable="0" parent="uBe8A7_YN0csv0diV8aF-16">
          <mxGeometry x="-0.2822" y="-1" relative="1" as="geometry">
            <mxPoint as="offset" />
          </mxGeometry>
        </mxCell>
        <mxCell id="uBe8A7_YN0csv0diV8aF-1" value="Tracker Link" style="ellipse;whiteSpace=wrap;html=1;fillColor=#1ba1e2;fontColor=#ffffff;strokeColor=#006EAF;" vertex="1" parent="1">
          <mxGeometry x="1725" y="450" width="60" height="40" as="geometry" />
        </mxCell>
        <mxCell id="uBe8A7_YN0csv0diV8aF-3" value="&lt;font style=&quot;font-size: 18px;&quot;&gt;Advertisement&lt;/font&gt;" style="rounded=0;whiteSpace=wrap;html=1;fillColor=#f8cecc;strokeColor=#b85450;" vertex="1" parent="1">
          <mxGeometry x="1870" y="260" width="120" height="150" as="geometry" />
        </mxCell>
        <mxCell id="uBe8A7_YN0csv0diV8aF-4" value="https://click.adtrace.io/abcxyz123" style="text;html=1;fillColor=#fad7ac;align=center;verticalAlign=middle;whiteSpace=wrap;rounded=0;strokeColor=#b46504;" vertex="1" parent="1">
          <mxGeometry x="1660" y="420" width="210" height="20" as="geometry" />
        </mxCell>
        <mxCell id="uBe8A7_YN0csv0diV8aF-5" value="" style="html=1;shadow=0;dashed=0;align=center;verticalAlign=middle;shape=mxgraph.arrows2.jumpInArrow;dy=11.27;dx=27.54;arrowHead=47.07;rotation=-75;fillColor=#ffe6cc;strokeColor=#d79b00;flipH=1;" vertex="1" parent="1">
          <mxGeometry x="1790" y="340" width="70" height="70" as="geometry" />
        </mxCell>
        <mxCell id="uBe8A7_YN0csv0diV8aF-6" value="CLICK" style="text;html=1;align=center;verticalAlign=middle;resizable=0;points=[];autosize=1;strokeColor=none;fillColor=none;" vertex="1" parent="1">
          <mxGeometry x="1790" y="330" width="60" height="30" as="geometry" />
        </mxCell>
        <mxCell id="uBe8A7_YN0csv0diV8aF-13" value="" style="edgeStyle=orthogonalEdgeStyle;rounded=0;orthogonalLoop=1;jettySize=auto;html=1;fontColor=#3333FF;" edge="1" parent="1" source="uBe8A7_YN0csv0diV8aF-9" target="uBe8A7_YN0csv0diV8aF-12">
          <mxGeometry relative="1" as="geometry" />
        </mxCell>
        <mxCell id="uBe8A7_YN0csv0diV8aF-9" value="Landing Page" style="rounded=1;whiteSpace=wrap;html=1;fillColor=#1ba1e2;strokeColor=#006EAF;fontColor=#ffffff;" vertex="1" parent="1">
          <mxGeometry x="1687.5" y="575" width="135" height="50" as="geometry" />
        </mxCell>
        <mxCell id="uBe8A7_YN0csv0diV8aF-11" value="&lt;div&gt;play store&lt;/div&gt;&lt;div&gt;cafe bazaar&lt;/div&gt;&lt;div&gt;website&lt;br&gt;&lt;/div&gt;" style="text;html=1;strokeColor=none;fillColor=none;align=left;verticalAlign=middle;whiteSpace=wrap;rounded=0;fontColor=#3333FF;" vertex="1" parent="1">
          <mxGeometry x="1830" y="570" width="77.5" height="60" as="geometry" />
        </mxCell>
        <mxCell id="uBe8A7_YN0csv0diV8aF-15" style="edgeStyle=orthogonalEdgeStyle;rounded=0;orthogonalLoop=1;jettySize=auto;html=1;fontColor=#3333FF;" edge="1" parent="1" source="uBe8A7_YN0csv0diV8aF-12" target="uBe8A7_YN0csv0diV8aF-14">
          <mxGeometry relative="1" as="geometry" />
        </mxCell>
        <mxCell id="uBe8A7_YN0csv0diV8aF-18" value="information from SDK" style="edgeLabel;html=1;align=center;verticalAlign=middle;resizable=0;points=[];fontColor=#000000;" vertex="1" connectable="0" parent="uBe8A7_YN0csv0diV8aF-15">
          <mxGeometry x="-0.503" y="1" relative="1" as="geometry">
            <mxPoint as="offset" />
          </mxGeometry>
        </mxCell>
        <mxCell id="uBe8A7_YN0csv0diV8aF-12" value="User Installs the App which implements AdTrace SDK" style="rounded=1;whiteSpace=wrap;html=1;fillColor=#1ba1e2;strokeColor=#006EAF;fontColor=#ffffff;" vertex="1" parent="1">
          <mxGeometry x="1683.75" y="705" width="142.5" height="65" as="geometry" />
        </mxCell>
        <mxCell id="uBe8A7_YN0csv0diV8aF-14" value="" style="shape=image;verticalLabelPosition=bottom;labelBackgroundColor=default;verticalAlign=top;aspect=fixed;imageAspect=0;image=https://adtrace.io/en/wp-content/uploads/2019/02/logo.png;" vertex="1" parent="1">
          <mxGeometry x="1920" y="551.1600000000001" width="85" height="93.84" as="geometry" />
        </mxCell>
        <mxCell id="uBe8A7_YN0csv0diV8aF-21" value="Install" style="rounded=1;whiteSpace=wrap;html=1;labelBackgroundColor=none;fontColor=#ffffff;fillColor=#60a917;strokeColor=#2D7600;" vertex="1" parent="1">
          <mxGeometry x="2080" y="575" width="90" height="30" as="geometry" />
        </mxCell>
        <mxCell id="uBe8A7_YN0csv0diV8aF-22" value="Fraud" style="rounded=1;whiteSpace=wrap;html=1;labelBackgroundColor=none;fontColor=#ffffff;fillColor=#e51400;strokeColor=#B20000;" vertex="1" parent="1">
          <mxGeometry x="2080" y="615" width="90" height="30" as="geometry" />
        </mxCell>
        <mxCell id="uBe8A7_YN0csv0diV8aF-24" value="" style="html=1;shadow=0;dashed=0;align=center;verticalAlign=middle;shape=mxgraph.arrows2.arrow;dy=0.56;dx=19.33;notch=7.9;labelBackgroundColor=none;fontColor=#FFFFFF;" vertex="1" parent="1">
          <mxGeometry x="2005" y="595" width="60" height="30" as="geometry" />
        </mxCell>
        <mxCell id="uBe8A7_YN0csv0diV8aF-25" value="" style="verticalLabelPosition=bottom;verticalAlign=top;html=1;shadow=0;dashed=0;strokeWidth=1;shape=mxgraph.android.phone2;strokeColor=#3700CC;labelBackgroundColor=none;fontColor=#ffffff;fillColor=#6a00ff;rotation=-20;" vertex="1" parent="1">
          <mxGeometry x="1631.5400000000002" y="705" width="38.46" height="75" as="geometry" />
        </mxCell>
        <mxCell id="uBe8A7_YN0csv0diV8aF-26" value="" style="shape=image;verticalLabelPosition=bottom;labelBackgroundColor=default;verticalAlign=top;aspect=fixed;imageAspect=0;image=https://adtrace.io/en/wp-content/uploads/2019/02/logo.png;rotation=-15;" vertex="1" parent="1">
          <mxGeometry x="1639.97" y="730.5799999999999" width="21.59" height="23.84" as="geometry" />
        </mxCell>
        <mxCell id="uBe8A7_YN0csv0diV8aF-27" value="&lt;div style=&quot;font-size: 10px;&quot;&gt;you can generate this link&lt;/div&gt;&lt;div style=&quot;font-size: 10px;&quot;&gt;on adtrace panel&lt;br style=&quot;font-size: 10px;&quot;&gt;&lt;/div&gt;" style="text;html=1;align=center;verticalAlign=middle;resizable=0;points=[];autosize=1;strokeColor=none;fillColor=none;fontSize=10;fontColor=#000000;" vertex="1" parent="1">
          <mxGeometry x="1530" y="400" width="140" height="40" as="geometry" />
        </mxCell>
      </root>
    </mxGraphModel>
  </diagram>
</mxfile>
